<svg width="36" height="36" viewBox="0 0 36 36" fill="none" xmlns="http://www.w3.org/2000/svg">
<path d="M12 20.25H24M12 12.75H18" stroke="#141B34" stroke-width="1.5" stroke-linecap="round" stroke-linejoin="round"/>
<path d="M9.14822 28.5C7.19805 28.3081 5.73713 27.7224 4.75736 26.7426C3 24.9853 3 22.1568 3 16.5V15.75C3 10.0931 3 7.26473 4.75736 5.50736C6.51473 3.75 9.34314 3.75 15 3.75H21C26.6568 3.75 29.4853 3.75 31.2426 5.50736C33 7.26473 33 10.0931 33 15.75V16.5C33 22.1568 33 24.9853 31.2426 26.7426C29.4853 28.5 26.6568 28.5 21 28.5C20.1592 28.5188 19.4896 28.5827 18.8319 28.7325C17.0343 29.1464 15.3697 30.0661 13.7248 30.8683C11.3809 32.0112 10.209 32.5827 9.47354 32.0477C8.06654 30.9998 9.44181 27.7528 9.75 26.25" stroke="#141B34" stroke-width="1.5" stroke-linecap="round"/>
</svg>
