<svg width="41" height="41" viewBox="0 0 41 41" fill="none" xmlns="http://www.w3.org/2000/svg">
<path fill-rule="evenodd" clip-rule="evenodd" d="M9.04198 9.04204C9.70914 8.3749 10.7908 8.3749 11.4579 9.04204L20.5 18.0841L29.542 9.04204C30.2091 8.3749 31.2908 8.3749 31.9579 9.04204C32.625 9.7092 32.625 10.7908 31.9579 11.458L22.9159 20.5L31.9579 29.5421C32.625 30.2092 32.625 31.2909 31.9579 31.958C31.2908 32.6251 30.2091 32.6251 29.542 31.958L20.5 22.9159L11.4579 31.958C10.7908 32.6251 9.70914 32.6251 9.04198 31.958C8.37484 31.2909 8.37484 30.2092 9.04198 29.5421L18.084 20.5L9.04198 11.458C8.37484 10.7908 8.37484 9.7092 9.04198 9.04204Z" fill="#141B34"/>
</svg>
