<svg width="52" height="52" viewBox="0 0 52 52" fill="none" xmlns="http://www.w3.org/2000/svg">
<path d="M36.5343 9.72182L40.1895 6.06449C40.9515 5.30252 41.9849 4.87445 43.0625 4.87445C44.1401 4.87445 45.1735 5.30252 45.9355 6.06449C46.6975 6.82645 47.1255 7.8599 47.1255 8.93749C47.1255 10.0151 46.6975 11.0485 45.9355 11.8105L22.9277 34.8183C21.7822 35.9631 20.3696 36.8046 18.8175 37.2667L13 39L14.7333 33.1825C15.1954 31.6304 16.0369 30.2178 17.1817 29.0723L36.5343 9.72182ZM36.5343 9.72182L42.25 15.4375M39 30.3333V40.625C39 41.9179 38.4864 43.1579 37.5721 44.0721C36.6579 44.9864 35.4179 45.5 34.125 45.5H11.375C10.0821 45.5 8.84209 44.9864 7.92785 44.0721C7.01361 43.1579 6.5 41.9179 6.5 40.625V17.875C6.5 16.5821 7.01361 15.3421 7.92785 14.4278C8.84209 13.5136 10.0821 13 11.375 13H21.6667" stroke="black" stroke-width="1.5" stroke-linecap="round" stroke-linejoin="round"/>
</svg>
