<svg width="24" height="24" viewBox="0 0 24 24" fill="none" xmlns="http://www.w3.org/2000/svg">
<path d="M12 0C12.543 0 13.0136 0.376336 13.133 0.906085L13.9671 4.60918C14.576 7.31269 16.6873 9.42393 19.3908 10.0329L23.0939 10.8671C23.6237 10.9864 24 11.457 24 12C24 12.543 23.6237 13.0136 23.0939 13.1329L19.3908 13.9671C16.6873 14.5761 14.576 16.6873 13.9671 19.3908L13.133 23.0939C13.0136 23.6237 12.543 24 12 24C11.457 24 10.9864 23.6237 10.867 23.0939L10.0329 19.3908C9.42395 16.6873 7.31272 14.5761 4.60924 13.9671L0.906085 13.1329C0.376335 13.0136 0 12.543 0 12C0 11.457 0.376335 10.9864 0.906085 10.8671L4.60924 10.0329C7.31272 9.42393 9.42395 7.31269 10.0329 4.60918L10.867 0.906085C10.9864 0.376336 11.457 0 12 0Z" fill="#FBC71C"/>
</svg>
