<svg width="75" height="75" viewBox="0 0 75 75" fill="none" xmlns="http://www.w3.org/2000/svg">
<path opacity="0.4" d="M52.8331 51.9844C54.5591 52.9225 57.2665 54.3938 59.1187 56.1419C60.2719 57.2306 61.465 58.7497 61.684 60.6819C61.9209 62.7725 60.9581 64.6603 59.2284 66.2491C56.3253 68.9162 52.7953 71.0938 48.2169 71.0938H26.7834C22.2049 71.0938 18.6748 68.9162 15.7716 66.2491C14.042 64.6603 13.0792 62.7725 13.3162 60.6819C13.5352 58.7497 14.7282 57.2306 15.8814 56.1419C17.7336 54.3938 20.4409 52.9225 22.1669 51.9844C22.5511 51.7756 22.8868 51.5931 23.1536 51.44C31.94 46.395 43.0603 46.395 51.8465 51.44C52.1134 51.5931 52.4487 51.7753 52.8331 51.9844Z" fill="#141B34"/>
<path opacity="0.4" d="M24.2188 31.25C24.2188 23.915 30.165 17.9688 37.5 17.9688C44.835 17.9688 50.7812 23.915 50.7812 31.25C50.7812 38.585 44.835 44.5312 37.5 44.5312C30.165 44.5312 24.2188 38.585 24.2188 31.25Z" fill="#141B34"/>
<path fill-rule="evenodd" clip-rule="evenodd" d="M37.5 9.96084C22.3098 9.96084 10.0142 22.1212 10.0142 37.0994C10.0142 41.0153 10.8523 44.73 12.3585 48.085C13.0443 49.6125 12.351 51.4015 10.81 52.0815C9.26906 52.7612 7.46394 52.074 6.77819 50.5465C4.93106 46.4322 3.90625 41.88 3.90625 37.0994C3.90625 18.7571 18.9569 3.90625 37.5 3.90625C56.0431 3.90625 71.0938 18.7571 71.0938 37.0994C71.0938 41.88 70.0691 46.4322 68.2219 50.5465C67.5359 52.074 65.7309 52.7612 64.19 52.0815C62.6491 51.4015 61.9556 49.6125 62.6416 48.085C64.1478 44.73 64.9859 41.0153 64.9859 37.0994C64.9859 22.1212 52.6903 9.96084 37.5 9.96084Z" fill="#141B34"/>
</svg>
